<?xml version="1.0" encoding="UTF-8" ?>
<!DOCTYPE svg PUBLIC "-//W3C//DTD SVG 1.1//EN" "http://www.w3.org/Graphics/SVG/1.1/DTD/svg11.dtd">
<svg width="275pt" height="105pt" viewBox="0 0 275 105" version="1.1" xmlns="http://www.w3.org/2000/svg">
<g id="#ae1a18ff">
<path fill="#ae1a18" opacity="1.00" d=" M 104.34 22.52 C 123.48 19.42 142.76 25.59 158.29 36.67 C 175.29 41.98 193.51 40.46 211.00 43.07 C 225.44 45.02 239.84 47.87 253.73 52.31 C 254.08 52.72 254.78 53.55 255.13 53.96 C 210.24 43.34 163.72 46.47 117.98 45.97 C 114.28 45.79 111.44 43.19 108.17 41.89 C 108.35 43.42 106.12 56.64 105.04 46.00 C 103.36 44.52 105.27 38.50 102.22 38.19 C 100.83 40.78 100.01 43.83 97.80 45.89 C 88.52 46.30 79.33 44.47 70.04 44.97 L 69.99 44.07 C 79.32 43.82 88.56 42.46 97.92 42.95 C 100.14 39.79 100.75 35.44 103.78 32.91 C 104.51 36.56 105.19 40.21 106.09 43.83 C 108.95 45.20 106.71 38.59 108.14 36.96 C 111.13 40.10 115.31 41.82 119.71 41.65 C 129.52 40.52 139.48 40.63 149.20 38.80 C 142.91 32.76 134.33 29.83 125.94 28.15 C 99.31 23.52 73.75 34.88 48.98 42.90 C 41.87 45.93 33.32 45.17 26.74 41.19 C 33.25 41.26 40.18 43.38 46.33 40.41 C 65.21 33.06 84.03 24.94 104.34 22.52 Z" />
</g>
<g id="#ffffffff">
<path fill="#ffffff" opacity="1.00" d=" M 26.33 66.32 C 30.86 65.95 35.43 65.83 39.97 66.06 C 40.08 71.37 40.07 76.67 39.97 81.98 C 37.33 81.88 32.58 83.28 35.86 77.03 C 33.17 77.03 27.79 77.03 25.10 77.03 L 24.86 81.99 L 20.01 82.00 C 20.01 79.52 20.01 74.56 20.01 72.08 C 21.65 69.72 23.93 67.87 26.33 66.32 M 28.27 69.21 C 26.97 70.63 24.82 71.75 24.93 73.96 C 27.70 73.97 33.23 73.98 36.00 73.98 C 40.18 65.69 30.89 70.35 28.27 69.21 Z" />
<path fill="#ffffff" opacity="1.00" d=" M 44.04 66.03 C 50.28 66.12 56.56 65.60 62.79 66.17 C 65.63 67.95 63.71 71.99 61.98 74.00 C 63.18 76.11 65.50 77.68 63.91 80.80 C 57.62 83.07 50.61 81.80 44.03 81.94 C 43.92 76.64 43.92 71.33 44.04 66.03 M 48.01 69.02 C 46.30 75.32 55.92 70.59 58.99 71.98 C 60.70 65.68 51.08 70.41 48.01 69.02 M 48.03 75.02 C 47.95 76.34 47.95 77.66 48.02 78.98 C 50.76 78.98 56.23 78.98 58.97 78.98 C 59.05 77.66 59.05 76.34 58.98 75.02 C 56.24 75.02 50.77 75.02 48.03 75.02 Z" />
<path fill="#ffffff" opacity="1.00" d=" M 68.01 66.04 C 74.67 65.93 81.33 65.93 87.98 66.03 C 89.55 71.17 83.15 68.43 80.04 69.08 C 79.91 73.37 80.15 77.68 79.94 81.97 C 78.64 82.04 77.34 82.05 76.04 81.97 C 75.90 77.67 76.15 73.36 75.94 69.07 C 73.64 67.90 66.29 71.26 68.01 66.04 Z" />
<path fill="#ffffff" opacity="1.00" d=" M 92.22 66.14 C 98.06 66.06 103.96 65.61 109.79 66.15 C 112.51 70.05 110.75 76.05 110.87 80.83 C 105.00 83.02 98.33 81.85 92.20 81.86 C 89.53 77.94 91.18 71.98 91.16 67.21 C 91.42 66.94 91.96 66.41 92.22 66.14 M 95.02 69.02 C 95.02 71.51 95.01 76.49 95.01 78.97 C 97.76 78.98 103.24 78.98 105.98 78.98 C 105.98 76.49 105.99 71.51 105.99 69.03 C 103.24 69.02 97.76 69.02 95.02 69.02 Z" />
<path fill="#ffffff" opacity="1.00" d=" M 116.22 66.14 C 122.07 66.06 127.96 65.60 133.80 66.16 C 135.23 66.93 135.00 68.56 135.03 69.94 C 129.70 69.54 124.38 68.74 119.01 69.00 C 119.02 71.50 119.02 76.49 119.02 78.99 C 122.01 77.43 129.30 81.85 130.39 77.18 C 136.35 73.56 134.93 78.35 134.88 80.83 C 129.00 83.01 122.34 81.86 116.20 81.86 C 113.53 77.94 115.18 71.98 115.16 67.21 C 115.42 66.94 115.96 66.41 116.22 66.14 Z" />
<path fill="#ffffff" opacity="1.00" d=" M 139.03 66.02 C 140.32 65.95 141.61 65.96 142.91 66.03 C 139.25 73.94 148.72 73.36 152.41 70.50 C 156.07 69.41 151.21 61.70 159.02 66.01 C 163.39 72.14 154.26 70.71 155.11 74.80 C 157.40 76.65 161.75 77.26 159.02 81.99 C 153.10 85.39 154.47 80.86 153.63 78.39 C 150.88 76.79 149.00 73.27 145.00 75.01 C 140.90 73.82 143.52 79.46 142.93 81.97 C 141.63 82.04 140.33 82.05 139.03 81.97 C 138.92 76.66 138.92 71.34 139.03 66.02 Z" />
<path fill="#ffffff" opacity="1.00" d=" M 163.04 66.03 C 169.28 66.11 175.56 65.62 181.79 66.16 C 184.64 68.30 182.62 72.74 182.88 75.83 C 177.93 77.92 172.35 76.58 167.11 77.08 C 170.36 83.28 165.66 81.87 163.03 81.98 C 162.92 76.66 162.92 71.35 163.04 66.03 M 167.00 69.02 L 167.00 73.97 C 169.75 73.98 175.25 73.98 178.00 73.98 L 178.00 69.03 C 175.25 69.02 169.75 69.02 167.00 69.02 Z" />
<path fill="#ffffff" opacity="1.00" d=" M 186.03 66.02 C 187.34 65.95 188.64 65.95 189.95 66.03 C 189.98 68.54 190.05 73.57 190.09 76.09 C 195.11 72.31 198.73 65.11 205.97 65.97 C 206.07 71.31 206.07 76.65 205.97 82.00 L 201.07 82.00 C 201.03 79.49 200.96 74.46 200.92 71.94 C 195.58 72.43 192.46 77.71 189.81 81.87 C 188.55 82.02 187.29 82.07 186.03 82.00 C 185.92 76.68 185.92 71.35 186.03 66.02 Z" />
<path fill="#ffffff" opacity="1.00" d=" M 210.03 66.02 C 211.32 65.95 212.61 65.96 213.91 66.03 C 210.30 75.39 220.37 71.10 224.91 71.97 C 224.95 70.48 225.04 67.50 225.08 66.01 L 229.97 66.00 C 230.07 71.33 230.07 76.66 229.97 81.99 L 225.10 82.00 C 225.06 80.25 224.97 76.77 224.92 75.02 C 222.21 75.02 216.79 75.03 214.07 75.03 C 214.04 76.76 213.97 80.23 213.93 81.97 C 212.63 82.04 211.33 82.05 210.03 81.97 C 209.92 76.66 209.92 71.34 210.03 66.02 Z" />
<path fill="#ffffff" opacity="1.00" d=" M 236.23 66.14 C 242.46 65.96 248.72 65.81 254.97 66.07 C 255.07 71.38 255.07 76.68 254.97 81.99 L 250.14 81.99 C 253.56 75.20 245.84 75.95 242.73 77.73 C 239.77 78.97 238.79 83.24 234.97 82.01 C 236.84 76.85 233.02 70.47 236.23 66.14 M 239.00 69.02 L 239.00 73.97 C 241.75 73.98 247.25 73.98 250.00 73.98 L 250.00 69.03 C 247.25 69.02 241.75 69.02 239.00 69.02 Z" />
</g>
</svg>
